
      <svg xmlns="http://www.w3.org/2000/svg" version="1.1" width="3000" height="3000" style="display: block;"><polygon stroke-linejoin="round" stroke-miterlimit="1" stroke-width="1" points="3032,1502 2833,1928 2924,2030" style="fill:#084371;stroke:#084371;"></polygon><polygon stroke-linejoin="round" stroke-miterlimit="1" stroke-width="1" points="3301,2504 2924,2030 2989,2308" style="fill:#0a5c92;stroke:#0a5c92;"></polygon><polygon stroke-linejoin="round" stroke-miterlimit="1" stroke-width="1" points="3301,2504 2989,2308 2954,2319" style="fill:#0b6faa;stroke:#0b6faa;"></polygon><polygon stroke-linejoin="round" stroke-miterlimit="1" stroke-width="1" points="3301,1195 3140,1094 3202,1374" style="fill:#095689;stroke:#095689;"></polygon><polygon stroke-linejoin="round" stroke-miterlimit="1" stroke-width="1" points="3301,2699 2597,2588 3295,2886" style="fill:#084573;stroke:#084573;"></polygon><polygon stroke-linejoin="round" stroke-miterlimit="1" stroke-width="1" points="3301,2699 2954,2319 2597,2588" style="fill:#084371;stroke:#084371;"></polygon><polygon stroke-linejoin="round" stroke-miterlimit="1" stroke-width="1" points="3301,2699 3301,2504 2954,2319" style="fill:#084776;stroke:#084776;"></polygon><polygon stroke-linejoin="round" stroke-miterlimit="1" stroke-width="1" points="3301,-301 3033,237 3301,342" style="fill:#084675;stroke:#084675;"></polygon><polygon stroke-linejoin="round" stroke-miterlimit="1" stroke-width="1" points="3301,-301 2901,3 3033,237" style="fill:#095082;stroke:#095082;"></polygon><polygon stroke-linejoin="round" stroke-miterlimit="1" stroke-width="1" points="3301,-301 2758,-301 2901,3" style="fill:#095082;stroke:#095082;"></polygon><polygon stroke-linejoin="round" stroke-miterlimit="1" stroke-width="1" points="3301,745 2526,768 3144,984" style="fill:#0b7bb9;stroke:#0b7bb9;"></polygon><polygon stroke-linejoin="round" stroke-miterlimit="1" stroke-width="1" points="3301,745 3033,237 2526,768" style="fill:#0b6ea9;stroke:#0b6ea9;"></polygon><polygon stroke-linejoin="round" stroke-miterlimit="1" stroke-width="1" points="3301,1499 3202,1374 3032,1502" style="fill:#0a6ca5;stroke:#0a6ca5;"></polygon><polygon stroke-linejoin="round" stroke-miterlimit="1" stroke-width="1" points="3301,1499 3032,1502 2924,2030" style="fill:#0b79b7;stroke:#0b79b7;"></polygon><polygon stroke-linejoin="round" stroke-miterlimit="1" stroke-width="1" points="3301,1499 2924,2030 3301,2504" style="fill:#094e7f;stroke:#094e7f;"></polygon><polygon stroke-linejoin="round" stroke-miterlimit="1" stroke-width="1" points="3301,1499 3301,1195 3202,1374" style="fill:#0a6096;stroke:#0a6096;"></polygon><polygon stroke-linejoin="round" stroke-miterlimit="1" stroke-width="1" points="3301,3299 3164,3296 1986,3299" style="fill:#07274d;stroke:#07274d;"></polygon><polygon stroke-linejoin="round" stroke-miterlimit="1" stroke-width="1" points="3301,3299 3295,2886 3163,3143" style="fill:#07335d;stroke:#07335d;"></polygon><polygon stroke-linejoin="round" stroke-miterlimit="1" stroke-width="1" points="3301,3299 3163,3143 3164,3296" style="fill:#073660;stroke:#073660;"></polygon><polygon stroke-linejoin="round" stroke-miterlimit="1" stroke-width="1" points="3301,3299 3301,2699 3295,2886" style="fill:#0fb8ff;stroke:#0fb8ff;"></polygon><polygon stroke-linejoin="round" stroke-miterlimit="1" stroke-width="1" points="3301,922 3140,1094 3301,1195" style="fill:#0c8bcd;stroke:#0c8bcd;"></polygon><polygon stroke-linejoin="round" stroke-miterlimit="1" stroke-width="1" points="3301,922 3144,984 3140,1094" style="fill:#0a68a0;stroke:#0a68a0;"></polygon><polygon stroke-linejoin="round" stroke-miterlimit="1" stroke-width="1" points="3301,922 3301,745 3144,984" style="fill:#0c83c4;stroke:#0c83c4;"></polygon><polygon stroke-linejoin="round" stroke-miterlimit="1" stroke-width="1" points="3301,388 3033,237 3301,745" style="fill:#0a649b;stroke:#0a649b;"></polygon><polygon stroke-linejoin="round" stroke-miterlimit="1" stroke-width="1" points="3301,388 3301,342 3033,237" style="fill:#072950;stroke:#072950;"></polygon><polygon stroke-linejoin="round" stroke-miterlimit="1" stroke-width="1" points="3295,2886 3097,3176 3163,3143" style="fill:#0eb0fd;stroke:#0eb0fd;"></polygon><polygon stroke-linejoin="round" stroke-miterlimit="1" stroke-width="1" points="3295,2886 2597,2588 3097,3176" style="fill:#094c7d;stroke:#094c7d;"></polygon><polygon stroke-linejoin="round" stroke-miterlimit="1" stroke-width="1" points="3164,3296 3097,3176 1986,3299" style="fill:#07294f;stroke:#07294f;"></polygon><polygon stroke-linejoin="round" stroke-miterlimit="1" stroke-width="1" points="3164,3296 3163,3143 3097,3176" style="fill:#095385;stroke:#095385;"></polygon><polygon stroke-linejoin="round" stroke-miterlimit="1" stroke-width="1" points="3202,1374 3140,1094 3032,1502" style="fill:#0a6da7;stroke:#0a6da7;"></polygon><polygon stroke-linejoin="round" stroke-miterlimit="1" stroke-width="1" points="3140,1094 2366,1260 3032,1502" style="fill:#0d92d7;stroke:#0d92d7;"></polygon><polygon stroke-linejoin="round" stroke-miterlimit="1" stroke-width="1" points="3144,984 2526,768 3140,1094" style="fill:#0b6ea8;stroke:#0b6ea8;"></polygon><polygon stroke-linejoin="round" stroke-miterlimit="1" stroke-width="1" points="3140,1094 2526,768 2366,1260" style="fill:#0eaaf5;stroke:#0eaaf5;"></polygon><polygon stroke-linejoin="round" stroke-miterlimit="1" stroke-width="1" points="3097,3176 2597,2588 1986,3299" style="fill:#083f6c;stroke:#083f6c;"></polygon><polygon stroke-linejoin="round" stroke-miterlimit="1" stroke-width="1" points="2989,2308 2924,2030 2954,2319" style="fill:#08406d;stroke:#08406d;"></polygon><polygon stroke-linejoin="round" stroke-miterlimit="1" stroke-width="1" points="3032,1502 2366,1260 2833,1928" style="fill:#0b7ab9;stroke:#0b7ab9;"></polygon><polygon stroke-linejoin="round" stroke-miterlimit="1" stroke-width="1" points="3033,237 2901,3 2407,232" style="fill:#0a5f95;stroke:#0a5f95;"></polygon><polygon stroke-linejoin="round" stroke-miterlimit="1" stroke-width="1" points="3033,237 2407,232 2526,768" style="fill:#0a659c;stroke:#0a659c;"></polygon><polygon stroke-linejoin="round" stroke-miterlimit="1" stroke-width="1" points="2954,2319 2924,2030 2833,1928" style="fill:#0a6097;stroke:#0a6097;"></polygon><polygon stroke-linejoin="round" stroke-miterlimit="1" stroke-width="1" points="2954,2319 2833,1928 2597,2588" style="fill:#09568a;stroke:#09568a;"></polygon><polygon stroke-linejoin="round" stroke-miterlimit="1" stroke-width="1" points="2833,1928 2152,2003 2597,2588" style="fill:#095284;stroke:#095284;"></polygon><polygon stroke-linejoin="round" stroke-miterlimit="1" stroke-width="1" points="2901,3 2758,-301 2719,-301" style="fill:#0d9ee6;stroke:#0d9ee6;"></polygon><polygon stroke-linejoin="round" stroke-miterlimit="1" stroke-width="1" points="2901,3 2445,-56 2407,232" style="fill:#084473;stroke:#084473;"></polygon><polygon stroke-linejoin="round" stroke-miterlimit="1" stroke-width="1" points="2597,2588 1967,2843 1986,3299" style="fill:#083a66;stroke:#083a66;"></polygon><polygon stroke-linejoin="round" stroke-miterlimit="1" stroke-width="1" points="2833,1928 2366,1260 2152,2003" style="fill:#0a6ba5;stroke:#0a6ba5;"></polygon><polygon stroke-linejoin="round" stroke-miterlimit="1" stroke-width="1" points="2901,3 2719,-301 2445,-56" style="fill:#083d6a;stroke:#083d6a;"></polygon><polygon stroke-linejoin="round" stroke-miterlimit="1" stroke-width="1" points="2719,-301 2581,-301 2445,-56" style="fill:#083f6c;stroke:#083f6c;"></polygon><polygon stroke-linejoin="round" stroke-miterlimit="1" stroke-width="1" points="2526,768 2407,232 2232,547" style="fill:#0a659d;stroke:#0a659d;"></polygon><polygon stroke-linejoin="round" stroke-miterlimit="1" stroke-width="1" points="2526,768 2304,885 2366,1260" style="fill:#0c87c9;stroke:#0c87c9;"></polygon><polygon stroke-linejoin="round" stroke-miterlimit="1" stroke-width="1" points="2366,1260 2081,1270 2152,2003" style="fill:#0a679f;stroke:#0a679f;"></polygon><polygon stroke-linejoin="round" stroke-miterlimit="1" stroke-width="1" points="2581,-301 2477,-301 2445,-56" style="fill:#084674;stroke:#084674;"></polygon><polygon stroke-linejoin="round" stroke-miterlimit="1" stroke-width="1" points="2597,2588 2152,2003 1895,2687" style="fill:#094c7c;stroke:#094c7c;"></polygon><polygon stroke-linejoin="round" stroke-miterlimit="1" stroke-width="1" points="2597,2588 1895,2687 1967,2843" style="fill:#084776;stroke:#084776;"></polygon><polygon stroke-linejoin="round" stroke-miterlimit="1" stroke-width="1" points="2445,-56 2247,163 2407,232" style="fill:#0a5d92;stroke:#0a5d92;"></polygon><polygon stroke-linejoin="round" stroke-miterlimit="1" stroke-width="1" points="2526,768 2232,547 2304,885" style="fill:#0b7bba;stroke:#0b7bba;"></polygon><polygon stroke-linejoin="round" stroke-miterlimit="1" stroke-width="1" points="2477,-301 2078,-301 2445,-56" style="fill:#0a659d;stroke:#0a659d;"></polygon><polygon stroke-linejoin="round" stroke-miterlimit="1" stroke-width="1" points="2407,232 2247,163 2232,547" style="fill:#09588d;stroke:#09588d;"></polygon><polygon stroke-linejoin="round" stroke-miterlimit="1" stroke-width="1" points="2445,-56 2078,-301 2247,163" style="fill:#083e6b;stroke:#083e6b;"></polygon><polygon stroke-linejoin="round" stroke-miterlimit="1" stroke-width="1" points="2366,1260 2304,885 2081,1270" style="fill:#0b7ab8;stroke:#0b7ab8;"></polygon><polygon stroke-linejoin="round" stroke-miterlimit="1" stroke-width="1" points="2152,2003 2081,1270 1510,1721" style="fill:#095589;stroke:#095589;"></polygon><polygon stroke-linejoin="round" stroke-miterlimit="1" stroke-width="1" points="2247,163 2078,-301 1819,-98" style="fill:#084878;stroke:#084878;"></polygon><polygon stroke-linejoin="round" stroke-miterlimit="1" stroke-width="1" points="2304,885 2232,547 1678,1156" style="fill:#0a67a0;stroke:#0a67a0;"></polygon><polygon stroke-linejoin="round" stroke-miterlimit="1" stroke-width="1" points="2304,885 1678,1156 2081,1270" style="fill:#0a69a3;stroke:#0a69a3;"></polygon><polygon stroke-linejoin="round" stroke-miterlimit="1" stroke-width="1" points="2152,2003 1462,2409 1895,2687" style="fill:#084878;stroke:#084878;"></polygon><polygon stroke-linejoin="round" stroke-miterlimit="1" stroke-width="1" points="2247,163 1568,185 2232,547" style="fill:#095386;stroke:#095386;"></polygon><polygon stroke-linejoin="round" stroke-miterlimit="1" stroke-width="1" points="2247,163 1819,-98 1568,185" style="fill:#09598e;stroke:#09598e;"></polygon><polygon stroke-linejoin="round" stroke-miterlimit="1" stroke-width="1" points="2232,547 1568,185 1678,1156" style="fill:#095b90;stroke:#095b90;"></polygon><polygon stroke-linejoin="round" stroke-miterlimit="1" stroke-width="1" points="2081,1270 1678,1156 1510,1721" style="fill:#095b90;stroke:#095b90;"></polygon><polygon stroke-linejoin="round" stroke-miterlimit="1" stroke-width="1" points="2152,2003 1510,1721 1462,2409" style="fill:#094f81;stroke:#094f81;"></polygon><polygon stroke-linejoin="round" stroke-miterlimit="1" stroke-width="1" points="1986,3299 1967,2843 1638,3134" style="fill:#08416f;stroke:#08416f;"></polygon><polygon stroke-linejoin="round" stroke-miterlimit="1" stroke-width="1" points="2078,-301 1501,-301 1751,-156" style="fill:#084676;stroke:#084676;"></polygon><polygon stroke-linejoin="round" stroke-miterlimit="1" stroke-width="1" points="2078,-301 1751,-156 1819,-98" style="fill:#0b75b1;stroke:#0b75b1;"></polygon><polygon stroke-linejoin="round" stroke-miterlimit="1" stroke-width="1" points="1895,2687 1462,2409 1456,2497" style="fill:#0a6da7;stroke:#0a6da7;"></polygon><polygon stroke-linejoin="round" stroke-miterlimit="1" stroke-width="1" points="1986,3299 1638,3134 1722,3299" style="fill:#0a6ba5;stroke:#0a6ba5;"></polygon><polygon stroke-linejoin="round" stroke-miterlimit="1" stroke-width="1" points="1678,1156 1568,185 970,601" style="fill:#094f81;stroke:#094f81;"></polygon><polygon stroke-linejoin="round" stroke-miterlimit="1" stroke-width="1" points="1967,2843 1895,2687 1638,3134" style="fill:#094e7f;stroke:#094e7f;"></polygon><polygon stroke-linejoin="round" stroke-miterlimit="1" stroke-width="1" points="1895,2687 1456,2497 1638,3134" style="fill:#084573;stroke:#084573;"></polygon><polygon stroke-linejoin="round" stroke-miterlimit="1" stroke-width="1" points="1819,-98 1751,-156 1568,185" style="fill:#083b67;stroke:#083b67;"></polygon><polygon stroke-linejoin="round" stroke-miterlimit="1" stroke-width="1" points="1510,1721 1319,1745 1462,2409" style="fill:#094c7d;stroke:#094c7d;"></polygon><polygon stroke-linejoin="round" stroke-miterlimit="1" stroke-width="1" points="1751,-156 1296,-50 1568,185" style="fill:#09578b;stroke:#09578b;"></polygon><polygon stroke-linejoin="round" stroke-miterlimit="1" stroke-width="1" points="1751,-156 1501,-301 1296,-50" style="fill:#083a66;stroke:#083a66;"></polygon><polygon stroke-linejoin="round" stroke-miterlimit="1" stroke-width="1" points="1501,-301 1305,-148 1296,-50" style="fill:#07345e;stroke:#07345e;"></polygon><polygon stroke-linejoin="round" stroke-miterlimit="1" stroke-width="1" points="1510,1721 1019,1489 1319,1745" style="fill:#084878;stroke:#084878;"></polygon><polygon stroke-linejoin="round" stroke-miterlimit="1" stroke-width="1" points="1638,3134 1456,2497 1124,3170" style="fill:#084675;stroke:#084675;"></polygon><polygon stroke-linejoin="round" stroke-miterlimit="1" stroke-width="1" points="1678,1156 1019,1489 1510,1721" style="fill:#095487;stroke:#095487;"></polygon><polygon stroke-linejoin="round" stroke-miterlimit="1" stroke-width="1" points="1722,3299 1638,3134 1501,3299" style="fill:#084472;stroke:#084472;"></polygon><polygon stroke-linejoin="round" stroke-miterlimit="1" stroke-width="1" points="1678,1156 717,1054 1019,1489" style="fill:#09578b;stroke:#09578b;"></polygon><polygon stroke-linejoin="round" stroke-miterlimit="1" stroke-width="1" points="1678,1156 970,601 717,1054" style="fill:#09568a;stroke:#09568a;"></polygon><polygon stroke-linejoin="round" stroke-miterlimit="1" stroke-width="1" points="1638,3134 1327,3299 1501,3299" style="fill:#09598d;stroke:#09598d;"></polygon><polygon stroke-linejoin="round" stroke-miterlimit="1" stroke-width="1" points="1638,3134 1124,3170 1327,3299" style="fill:#0a5f95;stroke:#0a5f95;"></polygon><polygon stroke-linejoin="round" stroke-miterlimit="1" stroke-width="1" points="1456,2497 1072,2456 1124,3170" style="fill:#094b7c;stroke:#094b7c;"></polygon><polygon stroke-linejoin="round" stroke-miterlimit="1" stroke-width="1" points="1462,2409 1319,1745 1072,2456" style="fill:#094d7e;stroke:#094d7e;"></polygon><polygon stroke-linejoin="round" stroke-miterlimit="1" stroke-width="1" points="1568,185 1296,-50 970,601" style="fill:#094b7b;stroke:#094b7b;"></polygon><polygon stroke-linejoin="round" stroke-miterlimit="1" stroke-width="1" points="1319,1745 950,1759 1072,2456" style="fill:#095284;stroke:#095284;"></polygon><polygon stroke-linejoin="round" stroke-miterlimit="1" stroke-width="1" points="1501,-301 1287,-301 1305,-148" style="fill:#084978;stroke:#084978;"></polygon><polygon stroke-linejoin="round" stroke-miterlimit="1" stroke-width="1" points="1462,2409 1072,2456 1456,2497" style="fill:#084574;stroke:#084574;"></polygon><polygon stroke-linejoin="round" stroke-miterlimit="1" stroke-width="1" points="1287,-301 646,-301 809,-196" style="fill:#094e7f;stroke:#094e7f;"></polygon><polygon stroke-linejoin="round" stroke-miterlimit="1" stroke-width="1" points="1296,-50 787,-49 970,601" style="fill:#094d7e;stroke:#094d7e;"></polygon><polygon stroke-linejoin="round" stroke-miterlimit="1" stroke-width="1" points="1319,1745 1019,1489 957,1665" style="fill:#09598e;stroke:#09598e;"></polygon><polygon stroke-linejoin="round" stroke-miterlimit="1" stroke-width="1" points="1327,3299 1124,3170 1137,3299" style="fill:#0b75b1;stroke:#0b75b1;"></polygon><polygon stroke-linejoin="round" stroke-miterlimit="1" stroke-width="1" points="1319,1745 957,1665 950,1759" style="fill:#0a639b;stroke:#0a639b;"></polygon><polygon stroke-linejoin="round" stroke-miterlimit="1" stroke-width="1" points="1305,-148 809,-196 1296,-50" style="fill:#0b6faa;stroke:#0b6faa;"></polygon><polygon stroke-linejoin="round" stroke-miterlimit="1" stroke-width="1" points="1305,-148 1287,-301 809,-196" style="fill:#095082;stroke:#095082;"></polygon><polygon stroke-linejoin="round" stroke-miterlimit="1" stroke-width="1" points="1296,-50 809,-196 787,-49" style="fill:#072e56;stroke:#072e56;"></polygon><polygon stroke-linejoin="round" stroke-miterlimit="1" stroke-width="1" points="1072,2456 950,1759 559,2169" style="fill:#084675;stroke:#084675;"></polygon><polygon stroke-linejoin="round" stroke-miterlimit="1" stroke-width="1" points="970,601 787,-49 568,327" style="fill:#095183;stroke:#095183;"></polygon><polygon stroke-linejoin="round" stroke-miterlimit="1" stroke-width="1" points="970,601 750,702 717,1054" style="fill:#095b90;stroke:#095b90;"></polygon><polygon stroke-linejoin="round" stroke-miterlimit="1" stroke-width="1" points="1124,3170 1072,2456 421,2932" style="fill:#084979;stroke:#084979;"></polygon><polygon stroke-linejoin="round" stroke-miterlimit="1" stroke-width="1" points="1124,3170 421,2932 1009,3299" style="fill:#094b7b;stroke:#094b7b;"></polygon><polygon stroke-linejoin="round" stroke-miterlimit="1" stroke-width="1" points="1137,3299 1124,3170 1009,3299" style="fill:#0a6aa4;stroke:#0a6aa4;"></polygon><polygon stroke-linejoin="round" stroke-miterlimit="1" stroke-width="1" points="1019,1489 717,1054 742,1588" style="fill:#0a6197;stroke:#0a6197;"></polygon><polygon stroke-linejoin="round" stroke-miterlimit="1" stroke-width="1" points="1072,2456 559,2169 275,2432" style="fill:#084675;stroke:#084675;"></polygon><polygon stroke-linejoin="round" stroke-miterlimit="1" stroke-width="1" points="1072,2456 275,2432 421,2932" style="fill:#084776;stroke:#084776;"></polygon><polygon stroke-linejoin="round" stroke-miterlimit="1" stroke-width="1" points="950,1759 596,1715 559,2169" style="fill:#094a7a;stroke:#094a7a;"></polygon><polygon stroke-linejoin="round" stroke-miterlimit="1" stroke-width="1" points="1019,1489 742,1588 957,1665" style="fill:#095a8f;stroke:#095a8f;"></polygon><polygon stroke-linejoin="round" stroke-miterlimit="1" stroke-width="1" points="970,601 568,327 750,702" style="fill:#09598d;stroke:#09598d;"></polygon><polygon stroke-linejoin="round" stroke-miterlimit="1" stroke-width="1" points="1009,3299 421,2932 178,3299" style="fill:#083a65;stroke:#083a65;"></polygon><polygon stroke-linejoin="round" stroke-miterlimit="1" stroke-width="1" points="742,1588 717,1054 495,1432" style="fill:#0a6ca6;stroke:#0a6ca6;"></polygon><polygon stroke-linejoin="round" stroke-miterlimit="1" stroke-width="1" points="950,1759 710,1639 596,1715" style="fill:#0a5f95;stroke:#0a5f95;"></polygon><polygon stroke-linejoin="round" stroke-miterlimit="1" stroke-width="1" points="957,1665 710,1639 950,1759" style="fill:#0a6097;stroke:#0a6097;"></polygon><polygon stroke-linejoin="round" stroke-miterlimit="1" stroke-width="1" points="957,1665 742,1588 710,1639" style="fill:#073762;stroke:#073762;"></polygon><polygon stroke-linejoin="round" stroke-miterlimit="1" stroke-width="1" points="717,1054 434,1348 495,1432" style="fill:#0b75b2;stroke:#0b75b2;"></polygon><polygon stroke-linejoin="round" stroke-miterlimit="1" stroke-width="1" points="750,702 568,327 453,495" style="fill:#094f80;stroke:#094f80;"></polygon><polygon stroke-linejoin="round" stroke-miterlimit="1" stroke-width="1" points="750,702 531,828 717,1054" style="fill:#0a5c91;stroke:#0a5c91;"></polygon><polygon stroke-linejoin="round" stroke-miterlimit="1" stroke-width="1" points="809,-196 646,-301 787,-49" style="fill:#094f81;stroke:#094f81;"></polygon><polygon stroke-linejoin="round" stroke-miterlimit="1" stroke-width="1" points="787,-49 646,-301 568,327" style="fill:#083c69;stroke:#083c69;"></polygon><polygon stroke-linejoin="round" stroke-miterlimit="1" stroke-width="1" points="596,1715 481,1719 559,2169" style="fill:#095386;stroke:#095386;"></polygon><polygon stroke-linejoin="round" stroke-miterlimit="1" stroke-width="1" points="646,-301 373,360 568,327" style="fill:#095082;stroke:#095082;"></polygon><polygon stroke-linejoin="round" stroke-miterlimit="1" stroke-width="1" points="742,1588 495,1432 710,1639" style="fill:#084675;stroke:#084675;"></polygon><polygon stroke-linejoin="round" stroke-miterlimit="1" stroke-width="1" points="750,702 453,495 531,828" style="fill:#095285;stroke:#095285;"></polygon><polygon stroke-linejoin="round" stroke-miterlimit="1" stroke-width="1" points="421,2932 275,2432 404,2929" style="fill:#07274d;stroke:#07274d;"></polygon><polygon stroke-linejoin="round" stroke-miterlimit="1" stroke-width="1" points="559,2169 470,2167 275,2432" style="fill:#08426f;stroke:#08426f;"></polygon><polygon stroke-linejoin="round" stroke-miterlimit="1" stroke-width="1" points="559,2169 481,1719 470,2167" style="fill:#084573;stroke:#084573;"></polygon><polygon stroke-linejoin="round" stroke-miterlimit="1" stroke-width="1" points="710,1639 452,1643 596,1715" style="fill:#0a6ca7;stroke:#0a6ca7;"></polygon><polygon stroke-linejoin="round" stroke-miterlimit="1" stroke-width="1" points="710,1639 495,1432 452,1643" style="fill:#0a659c;stroke:#0a659c;"></polygon><polygon stroke-linejoin="round" stroke-miterlimit="1" stroke-width="1" points="717,1054 531,828 434,1348" style="fill:#0b73af;stroke:#0b73af;"></polygon><polygon stroke-linejoin="round" stroke-miterlimit="1" stroke-width="1" points="404,2929 275,2432 179,2817" style="fill:#094f81;stroke:#094f81;"></polygon><polygon stroke-linejoin="round" stroke-miterlimit="1" stroke-width="1" points="481,1719 343,2119 470,2167" style="fill:#084473;stroke:#084473;"></polygon><polygon stroke-linejoin="round" stroke-miterlimit="1" stroke-width="1" points="531,828 453,495 348,566" style="fill:#0a639b;stroke:#0a639b;"></polygon><polygon stroke-linejoin="round" stroke-miterlimit="1" stroke-width="1" points="646,-301 -133,221 373,360" style="fill:#094a7b;stroke:#094a7b;"></polygon><polygon stroke-linejoin="round" stroke-miterlimit="1" stroke-width="1" points="646,-301 -299,-112 -133,221" style="fill:#094b7b;stroke:#094b7b;"></polygon><polygon stroke-linejoin="round" stroke-miterlimit="1" stroke-width="1" points="646,-301 -299,-301 -299,-112" style="fill:#08406d;stroke:#08406d;"></polygon><polygon stroke-linejoin="round" stroke-miterlimit="1" stroke-width="1" points="421,2932 404,2929 178,3299" style="fill:#0a659d;stroke:#0a659d;"></polygon><polygon stroke-linejoin="round" stroke-miterlimit="1" stroke-width="1" points="531,828 -12,1222 434,1348" style="fill:#0da3ec;stroke:#0da3ec;"></polygon><polygon stroke-linejoin="round" stroke-miterlimit="1" stroke-width="1" points="596,1715 452,1643 481,1719" style="fill:#0b7fbf;stroke:#0b7fbf;"></polygon><polygon stroke-linejoin="round" stroke-miterlimit="1" stroke-width="1" points="373,360 -133,221 58,378" style="fill:#094f80;stroke:#094f80;"></polygon><polygon stroke-linejoin="round" stroke-miterlimit="1" stroke-width="1" points="481,1719 192,1761 343,2119" style="fill:#09598d;stroke:#09598d;"></polygon><polygon stroke-linejoin="round" stroke-miterlimit="1" stroke-width="1" points="568,327 373,360 453,495" style="fill:#08416e;stroke:#08416e;"></polygon><polygon stroke-linejoin="round" stroke-miterlimit="1" stroke-width="1" points="470,2167 322,2169 275,2432" style="fill:#095082;stroke:#095082;"></polygon><polygon stroke-linejoin="round" stroke-miterlimit="1" stroke-width="1" points="531,828 -107,890 -12,1222" style="fill:#0a67a0;stroke:#0a67a0;"></polygon><polygon stroke-linejoin="round" stroke-miterlimit="1" stroke-width="1" points="343,2119 192,1761 255,2099" style="fill:#0b7dbc;stroke:#0b7dbc;"></polygon><polygon stroke-linejoin="round" stroke-miterlimit="1" stroke-width="1" points="531,828 348,566 -107,890" style="fill:#0a6ba5;stroke:#0a6ba5;"></polygon><polygon stroke-linejoin="round" stroke-miterlimit="1" stroke-width="1" points="495,1432 434,1348 452,1643" style="fill:#0b73af;stroke:#0b73af;"></polygon><polygon stroke-linejoin="round" stroke-miterlimit="1" stroke-width="1" points="404,2929 60,3058 178,3299" style="fill:#08497a;stroke:#08497a;"></polygon><polygon stroke-linejoin="round" stroke-miterlimit="1" stroke-width="1" points="452,1643 434,1348 192,1761" style="fill:#0a6aa3;stroke:#0a6aa3;"></polygon><polygon stroke-linejoin="round" stroke-miterlimit="1" stroke-width="1" points="481,1719 452,1643 192,1761" style="fill:#0c8acd;stroke:#0c8acd;"></polygon><polygon stroke-linejoin="round" stroke-miterlimit="1" stroke-width="1" points="470,2167 343,2119 322,2169" style="fill:#07274d;stroke:#07274d;"></polygon><polygon stroke-linejoin="round" stroke-miterlimit="1" stroke-width="1" points="434,1348 -12,1222 192,1761" style="fill:#0b7cbb;stroke:#0b7cbb;"></polygon><polygon stroke-linejoin="round" stroke-miterlimit="1" stroke-width="1" points="453,495 373,360 348,566" style="fill:#0b6faa;stroke:#0b6faa;"></polygon><polygon stroke-linejoin="round" stroke-miterlimit="1" stroke-width="1" points="255,2099 192,1761 126,1805" style="fill:#0c8acc;stroke:#0c8acc;"></polygon><polygon stroke-linejoin="round" stroke-miterlimit="1" stroke-width="1" points="404,2929 179,2817 60,3058" style="fill:#083f6d;stroke:#083f6d;"></polygon><polygon stroke-linejoin="round" stroke-miterlimit="1" stroke-width="1" points="373,360 58,378 348,566" style="fill:#084a7a;stroke:#084a7a;"></polygon><polygon stroke-linejoin="round" stroke-miterlimit="1" stroke-width="1" points="322,2169 255,2099 275,2432" style="fill:#07335d;stroke:#07335d;"></polygon><polygon stroke-linejoin="round" stroke-miterlimit="1" stroke-width="1" points="348,566 58,378 -107,890" style="fill:#09578b;stroke:#09578b;"></polygon><polygon stroke-linejoin="round" stroke-miterlimit="1" stroke-width="1" points="275,2432 255,2099 -28,2431" style="fill:#084270;stroke:#084270;"></polygon><polygon stroke-linejoin="round" stroke-miterlimit="1" stroke-width="1" points="275,2432 -28,2431 179,2817" style="fill:#07335d;stroke:#07335d;"></polygon><polygon stroke-linejoin="round" stroke-miterlimit="1" stroke-width="1" points="343,2119 255,2099 322,2169" style="fill:#0d9be2;stroke:#0d9be2;"></polygon><polygon stroke-linejoin="round" stroke-miterlimit="1" stroke-width="1" points="192,1761 -299,1499 126,1805" style="fill:#0b7cba;stroke:#0b7cba;"></polygon><polygon stroke-linejoin="round" stroke-miterlimit="1" stroke-width="1" points="192,1761 -12,1222 -299,1499" style="fill:#0a649c;stroke:#0a649c;"></polygon><polygon stroke-linejoin="round" stroke-miterlimit="1" stroke-width="1" points="255,2099 126,1805 -28,2431" style="fill:#084371;stroke:#084371;"></polygon><polygon stroke-linejoin="round" stroke-miterlimit="1" stroke-width="1" points="-133,221 -299,-112 -299,39" style="fill:#073661;stroke:#073661;"></polygon><polygon stroke-linejoin="round" stroke-miterlimit="1" stroke-width="1" points="-28,2431 -262,1740 -299,2420" style="fill:#072f57;stroke:#072f57;"></polygon><polygon stroke-linejoin="round" stroke-miterlimit="1" stroke-width="1" points="-12,1222 -299,1459 -299,1499" style="fill:#0c80c0;stroke:#0c80c0;"></polygon><polygon stroke-linejoin="round" stroke-miterlimit="1" stroke-width="1" points="58,378 -299,596 -107,890" style="fill:#0a67a0;stroke:#0a67a0;"></polygon><polygon stroke-linejoin="round" stroke-miterlimit="1" stroke-width="1" points="126,1805 -299,1499 -262,1740" style="fill:#094b7c;stroke:#094b7c;"></polygon><polygon stroke-linejoin="round" stroke-miterlimit="1" stroke-width="1" points="126,1805 -262,1740 -28,2431" style="fill:#095a8f;stroke:#095a8f;"></polygon><polygon stroke-linejoin="round" stroke-miterlimit="1" stroke-width="1" points="178,3299 60,3058 -63,3138" style="fill:#084a7a;stroke:#084a7a;"></polygon><polygon stroke-linejoin="round" stroke-miterlimit="1" stroke-width="1" points="179,2817 -299,3007 60,3058" style="fill:#08416f;stroke:#08416f;"></polygon><polygon stroke-linejoin="round" stroke-miterlimit="1" stroke-width="1" points="179,2817 -28,2431 -299,3007" style="fill:#083c68;stroke:#083c68;"></polygon><polygon stroke-linejoin="round" stroke-miterlimit="1" stroke-width="1" points="178,3299 -63,3138 -172,3299" style="fill:#084270;stroke:#084270;"></polygon><polygon stroke-linejoin="round" stroke-miterlimit="1" stroke-width="1" points="-28,2431 -299,2420 -299,3007" style="fill:#08406d;stroke:#08406d;"></polygon><polygon stroke-linejoin="round" stroke-miterlimit="1" stroke-width="1" points="-262,1740 -299,1499 -299,1687" style="fill:#0eb5ff;stroke:#0eb5ff;"></polygon><polygon stroke-linejoin="round" stroke-miterlimit="1" stroke-width="1" points="58,378 -231,323 -299,596" style="fill:#09598d;stroke:#09598d;"></polygon><polygon stroke-linejoin="round" stroke-miterlimit="1" stroke-width="1" points="60,3058 -299,3007 -63,3138" style="fill:#073762;stroke:#073762;"></polygon><polygon stroke-linejoin="round" stroke-miterlimit="1" stroke-width="1" points="58,378 -133,221 -231,323" style="fill:#072f57;stroke:#072f57;"></polygon><polygon stroke-linejoin="round" stroke-miterlimit="1" stroke-width="1" points="-12,1222 -107,890 -299,1459" style="fill:#0a6da7;stroke:#0a6da7;"></polygon><polygon stroke-linejoin="round" stroke-miterlimit="1" stroke-width="1" points="-63,3138 -299,3007 -172,3299" style="fill:#073661;stroke:#073661;"></polygon><polygon stroke-linejoin="round" stroke-miterlimit="1" stroke-width="1" points="-172,3299 -299,3007 -299,3299" style="fill:#083c68;stroke:#083c68;"></polygon><polygon stroke-linejoin="round" stroke-miterlimit="1" stroke-width="1" points="-107,890 -299,596 -299,1459" style="fill:#0a6097;stroke:#0a6097;"></polygon><polygon stroke-linejoin="round" stroke-miterlimit="1" stroke-width="1" points="-133,221 -299,39 -231,323" style="fill:#083964;stroke:#083964;"></polygon><polygon stroke-linejoin="round" stroke-miterlimit="1" stroke-width="1" points="-262,1740 -299,1687 -299,2420" style="fill:#095487;stroke:#095487;"></polygon><polygon stroke-linejoin="round" stroke-miterlimit="1" stroke-width="1" points="-231,323 -299,39 -299,596" style="fill:#084979;stroke:#084979;"></polygon></svg>